<?xml version="1.0" encoding="utf-8"?>
<!-- Generator: Adobe Illustrator 25.0.1, SVG Export Plug-In . SVG Version: 6.00 Build 0)  -->
<svg version="1.1" id="Calque_1" xmlns="http://www.w3.org/2000/svg" xmlns:xlink="http://www.w3.org/1999/xlink" x="0px" y="0px"
	 viewBox="0 0 32 32" style="enable-background:new 0 0 32 32;" xml:space="preserve">
<style type="text/css">
	.st0{fill:#FFFFFF;}
</style>
<g>
	<g>
		<path class="st0" d="M24.47,5.71c-1.04,0-1.88,0.84-1.88,1.88c0,1.04,0.84,1.88,1.88,1.88c1.04,0,1.88-0.84,1.88-1.88
			C26.35,6.55,25.51,5.71,24.47,5.71z"/>
		<path class="st0" d="M16.13,8.12c-4.35,0-7.88,3.54-7.88,7.88c0,4.35,3.54,7.88,7.88,7.88c4.35,0,7.88-3.54,7.88-7.88
			C24.01,11.65,20.48,8.12,16.13,8.12z M16.13,21.05c-2.78,0-5.05-2.26-5.05-5.05s2.26-5.05,5.05-5.05c2.78,0,5.05,2.26,5.05,5.05
			S18.91,21.05,16.13,21.05z"/>
		<path class="st0" d="M22.39,32H9.61C4.31,32,0,27.69,0,22.39V9.61C0,4.31,4.31,0,9.61,0h12.78C27.69,0,32,4.31,32,9.61v12.78
			C32,27.69,27.69,32,22.39,32z M9.61,3.01c-3.64,0-6.6,2.96-6.6,6.6v12.78c0,3.64,2.96,6.6,6.6,6.6h12.78c3.64,0,6.6-2.96,6.6-6.6
			V9.61c0-3.64-2.96-6.6-6.6-6.6H9.61z"/>
	</g>
</g>
</svg>
