<?xml version="1.0" encoding="utf-8"?>
<!-- Generator: Adobe Illustrator 25.0.1, SVG Export Plug-In . SVG Version: 6.00 Build 0)  -->
<svg version="1.1" id="Calque_1" xmlns="http://www.w3.org/2000/svg" xmlns:xlink="http://www.w3.org/1999/xlink" x="0px" y="0px"
	 viewBox="0 0 32 32" style="enable-background:new 0 0 32 32;" xml:space="preserve">
<style type="text/css">
	.st0{fill:#FFFFFF;}
</style>
<path class="st0" d="M31.87,5.66c-1.02,0.46-2.14,0.74-3.24,0.92c0.52-0.09,1.28-1.03,1.59-1.41c0.47-0.58,0.86-1.24,1.07-1.96
	c0.03-0.06,0.05-0.13-0.01-0.17c-0.07-0.03-0.12-0.01-0.17,0.01c-1.22,0.66-2.49,1.13-3.84,1.47c-0.11,0.03-0.19,0-0.26-0.07
	c-0.11-0.13-0.22-0.24-0.34-0.34c-0.57-0.48-1.17-0.86-1.86-1.14c-0.9-0.37-1.88-0.52-2.85-0.46c-0.94,0.06-1.87,0.33-2.7,0.76
	c-0.84,0.44-1.59,1.05-2.18,1.78c-0.62,0.76-1.07,1.66-1.3,2.61c-0.22,0.92-0.21,1.83-0.07,2.75c0.02,0.15,0.01,0.17-0.13,0.15
	C10.31,9.79,5.94,7.91,2.4,3.87C2.24,3.69,2.16,3.69,2.03,3.88c-1.55,2.33-0.8,6.06,1.14,7.9c0.26,0.25,0.52,0.49,0.81,0.71
	c-0.1,0.02-1.39-0.12-2.54-0.71c-0.15-0.1-0.23-0.04-0.24,0.13c-0.01,0.25,0.01,0.48,0.04,0.75c0.3,2.36,1.93,4.54,4.17,5.39
	c0.27,0.11,0.56,0.21,0.85,0.26c-0.51,0.11-1.03,0.19-2.5,0.08c-0.18-0.03-0.25,0.06-0.18,0.23c1.1,2.99,3.47,3.88,5.24,4.39
	c0.24,0.04,0.48,0.04,0.71,0.1c-0.01,0.02-0.03,0.02-0.04,0.04c-0.59,0.9-2.63,1.57-3.58,1.9c-1.73,0.6-3.61,0.88-5.44,0.7
	c-0.29-0.04-0.35-0.04-0.43,0c-0.08,0.05-0.01,0.12,0.08,0.19c0.37,0.24,0.75,0.46,1.13,0.67c1.16,0.61,2.37,1.1,3.63,1.45
	c6.53,1.8,13.89,0.48,18.8-4.39c3.85-3.83,5.2-9.1,5.2-14.39c0-0.21,0.24-0.32,0.39-0.43c1-0.75,1.81-1.65,2.56-2.66
	C32,5.97,32,5.77,32,5.68c0-0.01,0-0.03,0-0.03C32,5.57,32,5.6,31.87,5.66z"/>
</svg>
